<svg width="240" height="60" fill="none" xmlns="http://www.w3.org/2000/svg"><path d="M66.61 25.231c1.376 0 2.907.048 4.236.946.885.586 1.927 1.747 1.927 3.817 0 2.274-1.436 4.955-5.422 4.955h-3.35v6.235h-2.933V25.231h5.541zm.119 7.384c.646 0 1.58.024 2.322-.67.514-.466.79-1.256.79-1.927 0-.622-.252-1.376-.766-1.819-.515-.442-1.329-.658-2.238-.658H64v5.074h2.729zm8.748-2.082c.814-.766 2.023-1.436 3.83-1.436 1.82 0 3.028.67 3.842 1.436 1.208 1.137 1.83 2.908 1.83 4.715s-.622 3.579-1.83 4.716c-.814.765-2.023 1.447-3.842 1.447-1.807 0-3.016-.682-3.83-1.447-1.208-1.137-1.83-2.909-1.83-4.716-.013-1.819.622-3.578 1.83-4.715zm1.975 8.066c.251.3.838.862 1.855.862 1.03 0 1.604-.55 1.855-.862.191-.203.886-1.137.886-3.35 0-2.215-.695-3.136-.886-3.352a2.367 2.367 0 00-1.855-.861 2.33 2.33 0 00-1.855.861c-.18.216-.885 1.137-.885 3.351 0 2.202.706 3.136.885 3.351zm16.802-4.93c-.047-.599-.275-1.305-.586-1.748-.287-.419-.838-.885-1.771-.885-.91 0-1.508.466-1.88 1.089-.586.957-.621 2.441-.621 3.123 0 1.09.155 2.394.622 3.136.299.466.91 1.065 1.879 1.065.694 0 1.28-.275 1.723-.886.347-.49.587-1.185.623-1.795l2.465.3c-.144 1.088-.623 2.309-1.484 3.087-.718.646-1.843 1.233-3.423 1.233-1.76 0-2.908-.694-3.578-1.329-.91-.861-1.771-2.393-1.771-4.81 0-2.25.765-3.603 1.376-4.321.861-1.03 2.322-1.855 4.045-1.855 1.472 0 2.68.515 3.435 1.305.765.765 1.232 1.926 1.4 2.968l-2.454.323zm11.537 0c-.048-.599-.275-1.305-.586-1.748-.275-.419-.838-.885-1.771-.885-.91 0-1.508.466-1.879 1.089-.575.957-.623 2.441-.623 3.123 0 1.09.168 2.394.623 3.136.299.466.909 1.065 1.879 1.065.694 0 1.28-.275 1.723-.886.347-.49.586-1.185.622-1.795l2.466.3c-.132 1.088-.623 2.309-1.484 3.087-.718.646-1.831 1.233-3.411 1.233-1.771 0-2.908-.694-3.578-1.329-.91-.861-1.772-2.393-1.772-4.81 0-2.25.766-3.603 1.377-4.321.861-1.03 2.321-1.855 4.045-1.855 1.46 0 2.668.515 3.434 1.305.766.765 1.233 1.926 1.401 2.968l-2.466.323zm14.9 4.069a4.984 4.984 0 01-1.951 2.692c-.933.623-2.142.981-3.423.981-1.603 0-3.231-.682-4.212-1.675-.91-.921-1.58-2.537-1.58-4.44 0-2.417 1.005-4.021 2.095-4.93.634-.539 1.819-1.281 3.602-1.281 2.262 0 3.698 1.041 4.464 2.118.813 1.113 1.196 2.669 1.196 4.021v.539h-8.413c0 .132-.024 1.209.395 2.07.623 1.305 1.771 1.628 2.561 1.628.623 0 1.412-.192 2.071-.862.395-.419.562-.814.622-1.185l2.573.323zm-2.741-3.746c0-.67-.167-1.436-.514-1.951a2.566 2.566 0 00-2.095-1.09c-.885 0-1.651.444-2.118.994a3.32 3.32 0 00-.694 2.047h5.421zm14.409-4.668v11.86h-2.704v-9.85h-3.065c-.07 1.605-.118 2.25-.166 3.352-.072 1.232-.156 3.83-1.209 5.254a3.355 3.355 0 01-1.819 1.208c-.3.096-.623.132-.958.132-.228 0-.466-.024-.694-.096v-2.046h.228a2.237 2.237 0 001.112-.443c.934-.742 1.018-2.418 1.114-3.746a61.18 61.18 0 00.154-4.368l.024-1.257h7.983zm5.541 4.225h2.98c.766 0 2.25.096 3.232 1.065.885.862.969 2.07.969 2.717 0 1.699-.695 2.56-1.233 3.003-.191.144-1.065.838-2.74.838h-5.9V29.324h2.692v4.225zm0 5.672h2.118c.515 0 1.066-.023 1.533-.418.275-.264.609-.694.609-1.448 0-.647-.19-1.161-.717-1.508-.467-.3-1.054-.347-1.413-.347h-2.118v3.721h-.012zm11.106-9.897l2.19 3.686 2.274-3.686h2.465l-3.47 5.362 4.117 6.486h-3.16l-2.692-4.464-2.837 4.464h-2.465l4.045-6.151-3.626-5.697h3.159zm9.658 1.209c.814-.766 2.023-1.436 3.829-1.436 1.819 0 3.029.67 3.843 1.436 1.208 1.137 1.831 2.908 1.831 4.715s-.635 3.579-1.831 4.716c-.814.765-2.024 1.447-3.843 1.447-1.806 0-3.015-.682-3.829-1.447-1.208-1.137-1.831-2.909-1.831-4.716 0-1.819.623-3.578 1.831-4.715zm1.975 8.066c.251.3.838.862 1.854.862 1.03 0 1.605-.55 1.867-.862.18-.203.886-1.137.886-3.35 0-2.215-.694-3.136-.886-3.352a2.371 2.371 0 00-1.867-.861 2.33 2.33 0 00-1.854.861c-.192.216-.885 1.137-.885 3.351 0 2.202.705 3.136.885 3.351zm8.975-6.067a4.166 4.166 0 011.903-2.621c.395-.252 1.485-.814 3.351-.814 1.161 0 2.346.203 3.231.694 1.305.718 1.627 1.76 1.627 2.513 0 .814-.394 2.37-2.416 2.597v.048c.693.096 1.46.395 1.927.886.419.442.741 1.184.741 1.974 0 1.185-.694 2.226-1.58 2.813-1.064.694-2.537.79-3.625.79-1.102 0-2.765-.12-3.937-1.042-.647-.514-1.258-1.4-1.437-2.513l2.441-.419c.096.371.3.934.575 1.257.611.706 1.555.766 2.166.766s1.256-.072 1.771-.419c.467-.323.695-.766.695-1.352 0-.491-.096-.886-.515-1.233-.539-.443-1.256-.515-1.927-.515h-1.233v-1.819h1.233c.467 0 1.136-.095 1.508-.275.491-.251.766-.67.766-1.352 0-.371-.144-.73-.491-1.006-.539-.442-1.304-.466-1.699-.466-.539 0-1.329.072-1.975.622a2.26 2.26 0 00-.766 1.364l-2.334-.478zm24.163-4.512h-7.695v3.53h3.422c1.234 0 2.418.096 3.626.934 1.186.814 1.928 2.022 1.928 3.77 0 1.627-.611 2.836-1.377 3.602-1.16 1.16-2.489 1.328-3.877 1.328h-7.444V25.231h11.417v2.789zm-7.695 10.364h3.003c.563 0 1.078-.024 1.605-.563.514-.514.585-1.089.585-1.532 0-.502-.143-1.017-.585-1.46-.527-.526-1.21-.586-1.7-.586h-2.908v4.14zm10.891-5.769a4.28 4.28 0 012.046-2.788c.921-.539 2.154-.742 3.698-.742 1.95 0 3.925.251 4.811 2.094.467.958.419 1.975.419 2.86v4.584c0 .958.131 1.843.347 2.561h-3.375a10.24 10.24 0 01-.18-1.879c-.443.79-1.52 2.118-3.973 2.118-1.09 0-2.214-.275-2.98-.909-.742-.61-1.209-1.58-1.209-2.645 0-1.185.515-2.609 2.538-3.447 1.304-.538 3.422-.718 4.368-.765l1.112-.048v-.252c0-.323-.024-1.017-.347-1.4-.442-.515-1.328-.538-1.675-.538-.479 0-1.065.047-1.556.347-.299.18-.694.562-.838 1.208l-3.206-.359zm6.582 2.956c-1.162.096-2.322.216-2.981 1.018a1.71 1.71 0 00-.371 1.065c0 .514.252.861.515 1.041.323.251.814.37 1.28.37.695 0 1.509-.298 1.976-.86.072-.073.621-.767.621-2.119v-.622l-1.04.107zm10.543-6.247v4.44h3.745v-4.44h3.46v11.848h-3.46v-4.978h-3.745v4.978h-3.458V29.324h3.458zm13.368 0v4.56h.934c1.004 0 1.423-.49 1.675-1.03.491-1.04.467-1.854.909-2.668.347-.646.814-.814 1.113-.862h2.861a5.854 5.854 0 00-.91 1.28c-.371.767-.718 2.023-.934 2.562-.274.742-.741 1.484-1.927 1.58v.047c.635.096 1.282.42 1.771 1.137.3.443.503 1.018.839 1.927.323.934.466 1.257.766 1.975.239.538.371.862.765 1.352h-3.255c-.514-.167-.862-.514-1.281-1.723-.322-.922-.37-1.257-.585-1.771l-.168-.42c-.347-.885-.814-1.064-1.533-1.064h-1.04v4.978h-3.458v-11.86h3.458zM29.186 58.8C15.076 58.8 3.6 47.335 3.6 33.225c0-8.102 3.722-15.557 10.208-20.44l.263-.216V1.2h14.684v6.45h.431c14.098 0 25.575 11.478 25.575 25.587 0 14.098-11.477 25.563-25.575 25.563z" fill="#19502E"/><path d="M21.78 33.632l5.325-5.23v-3.554l-5.326 5.206v3.578zm0-13.248l5.325-5.242v-3.35l-5.326 5.205v3.387zm0 4.38l5.325-5.23v-3.35l-5.326 5.205v3.375zm-1.52-12.937l-.707-.682V2.852h-.814v7.503l-.694-.694v-6.81h-.813v6.032l-.706-.694V2.852h-.802v7.91l5.337 5.23V2.852h-.802v8.975zm1.52 17.317l5.325-5.23v-3.35l-5.326 5.205v3.375zm-6.056-.742l5.337 5.23v-3.578l-5.337-5.206v3.554zM26.303 8.19l-.706.694V2.852h-.802v6.821l-.706.682V2.852h-.802v8.281l-.706.694V2.852h-.802v13.14l5.326-5.23v-7.91h-.802v5.337zm-10.58 6.953l5.338 5.242v-3.387l-5.337-5.206v3.351zm0 4.392l5.338 5.23V21.39l-5.337-5.206v3.351zm0 4.38l5.338 5.23V25.77l-5.337-5.205v3.35zm31.75 2.765h-12.96c.275-.43.43-.933.43-1.472a2.794 2.794 0 00-2.8-2.788 2.791 2.791 0 00-2.788 2.788c0 .61.191 1.16.526 1.616a.892.892 0 000 1.496 2.803 2.803 0 00-.526 1.615 2.784 2.784 0 002.788 2.789c1.544 0 2.8-1.245 2.8-2.789 0-.538-.155-1.053-.43-1.472h9.646v.587H43.2v.825h.958v.85H43.2v1.568h.958v-.706h1.412v.706h.945v-1.568h-.945v-.85h.945v-.825h-.945v-.587h1.903a.68.68 0 00.67-.682v-.419a.687.687 0 00-.67-.682zm-13.882 3.255a1.443 1.443 0 01-2.884 0c0-.287.084-.562.24-.79l.394-.682a1.177 1.177 0 01-.407-.897c0-.36.156-.683.407-.898l-.395-.682a1.369 1.369 0 01-.239-.79c0-.79.646-1.436 1.436-1.436.79 0 1.448.646 1.448 1.436 0 .586-.682 1.987-.682 1.987v.754c0 .012.682 1.412.682 1.998z" fill="#FFCB05"/><path d="M10.876 24.98v3.482c0 3.327 1.448 5.47 2.286 6.295.49.479 5.445 5.362 5.517 5.421 1.544 1.508 1.807 1.999 2.154 2.86v-3.853c0-3.435-1.735-4.763-2.633-5.637-2.094-2.034-3.482-3.375-4.62-4.5-2.13-2.142-2.704-4.068-2.704-4.068zM18.2 42.153c-2.082-2.046-3.482-3.375-4.607-4.5-2.143-2.142-2.705-3.59-2.705-3.59v3.004c0 3.327 1.508 5.445 2.274 6.319l5.517 5.397c1.544 1.508 1.807 2.226 2.154 3.076v-4.07c0-3.434-1.747-4.762-2.633-5.636z" fill="#fff"/><path d="M29.187 9.29c-.383 0-.766.012-1.149.024v1.628c.383-.024.754-.024 1.15-.024 12.314 0 22.295 9.98 22.295 22.307 0 12.315-9.981 22.296-22.296 22.296S6.88 45.54 6.88 33.225c0-6.833 3.075-12.949 7.922-17.042v-2.082c-5.804 4.368-9.55 11.31-9.55 19.124 0 13.212 10.71 23.923 23.935 23.923 13.212 0 23.923-10.71 23.923-23.923C53.11 20.013 42.4 9.29 29.187 9.29z" fill="#fff"/><path d="M46.11 45.72c.37-.503.718-1.03 1.053-1.569v-3.207h-1.054v4.775zm3.063-5.949c.156-.466.287-.933.407-1.4h-3.47v.85h.526c.921-.024 1.963-.036 2.537.55zm-23.109-1.519h-.946v9.538h.946v-9.538z" fill="#fff"/><path d="M22.951 36.42h3.112c.802 0 1.364.167 1.687.479.323.31.48.873.48 1.675v8.916c0 .802-.157 1.364-.48 1.675-.49.491-1.4.491-2.154.491-.167-.012-.335-.012-.479-.012v4.225c.312.06.623.12.946.167v-3.47c1.436 0 2.37-.491 2.812-1.472v5.17h.311c.192 0 .395 0 .587-.012V38.73c0-.826.167-1.4.479-1.724.31-.323.873-.49 1.663-.49.802 0 1.987-.12 2.597.49.311.324.455.91.455 1.724v4.57h-2.13v-4.88h-.922v15.665c.311-.036.61-.084.922-.143v-9.718h2.13v9.227c.443-.12.873-.263 1.304-.419v-8.45c0-.957.228-1.675 1.197-1.998l-1.077-5.876h2.154l.36 6.415h.262l.36-6.415H41.8l-1.22 5.876c1.017.36 1.22.982 1.22 1.999v5.457a20.009 20.009 0 001.807-1.532v-11.86h6.32c.047-.287.083-.562.119-.861H35.278l.203 1.065c-.466-.862-1.352-1.293-2.656-1.293h-.922c-1.568 0-2.513.623-2.884 1.867-.335-1.304-1.328-1.95-2.968-1.95h-4.045v17.508c.311.108.622.216.933.311V36.42h.012zm19.615 6.738l-1.017-.97 1.017-5.265v6.235z" fill="#fff"/><path d="M38.558 52.062c.323-.167.646-.335.969-.514V44.33h-.97v7.731z" fill="#fff"/></svg>