<svg width="240" height="60" fill="none" xmlns="http://www.w3.org/2000/svg"><path d="M108.6 23.4l4.56-3.36H98.04v19.92h15.12V36.6h-10.8v-5.04h9.12V28.2h-9.12v-4.8h6.24zm-18.84 0l4.56-3.36H77.04v19.92h9c5.04 0 7.92-2.28 7.92-6.24 0-3.84-2.64-5.88-7.44-5.88h-5.28V23.4h8.52zm-3.84 7.68c2.76 0 3.96.96 3.96 2.76 0 1.8-1.32 2.76-3.96 2.76h-4.56v-5.52h4.56zm39.36-11.04h-8.16v19.92h4.32v-5.64h3.96c5.28 0 8.52-2.76 8.52-7.2s-3.36-7.08-8.64-7.08zm0 10.92h-3.84v-7.68h3.84c2.76 0 4.32 1.32 4.32 3.84-.12 2.52-1.56 3.84-4.32 3.84zm-55.56 4.68c-1.2.6-2.4.96-3.72.96-3.84 0-6.72-2.76-6.72-6.6s2.76-6.6 6.72-6.6c1.44 0 2.76.48 3.96 1.2l3.12-2.28-.24-.24c-1.8-1.56-4.2-2.4-6.96-2.4-3 0-5.64.96-7.68 2.88-1.92 1.92-3.12 4.56-3 7.32 0 2.76 1.08 5.4 3 7.44 2.04 1.92 4.8 3 7.56 2.88 3.12 0 5.76-1.08 7.68-3l-2.76-2.04-.96.48zM199.2 28.2h-9.24v-8.16h-4.32v19.92h4.32V31.8h9.24v8.16h4.32V20.04h-4.32v8.16zm-29.16-8.16l-8.64 19.92h4.32L167.4 36h9.12l1.68 3.96h4.56l-8.4-19.92h-4.32zm-1.2 12.6l3.36-8.04 3.12 8.04h-6.48zm50.28-3l7.8-9.6H222l-6.48 8.52h-2.4v-8.52h-4.32v19.92h4.32v-8.04h2.76l6.6 8.04H228l-8.88-10.32zm-66.72-1.8h-5.28V23.4h11.28v-3.36h-15.6v19.92h9c5.04 0 7.92-2.28 7.92-6.24.12-3.84-2.52-5.88-7.32-5.88zm-.72 8.88h-4.56V31.2h4.56c2.76 0 3.96.96 3.96 2.76.12 1.8-1.32 2.76-3.96 2.76zM41.377 19.657a16.743 16.743 0 011.965 3.305l-14.939 11.16-6.243-3.966v-4.772l6.243 3.966 12.974-9.693z" fill="#21A038"/><path d="M15.789 29.82c0-.215.005-.428.015-.639l-3.783-.188a16.77 16.77 0 001.226 7.188 16.59 16.59 0 003.557 5.389l2.683-2.72a12.745 12.745 0 01-2.738-4.14 12.882 12.882 0 01-.96-4.89z" fill="url(#paint0_linear_553_4714)"/><path d="M28.4 17.04c.212 0 .422.007.63.018l.19-3.836a16.166 16.166 0 00-7.096 1.242 16.343 16.343 0 00-5.32 3.605l2.684 2.72a12.558 12.558 0 014.087-2.777 12.42 12.42 0 014.826-.973z" fill="url(#paint1_linear_553_4714)"/><path d="M28.4 42.6c-.21 0-.42 0-.63-.016l-.19 3.834a16.155 16.155 0 007.095-1.241 16.332 16.332 0 005.316-3.606l-2.679-2.718a12.562 12.562 0 01-4.087 2.775 12.43 12.43 0 01-4.825.973z" fill="url(#paint2_linear_553_4714)"/><path d="M35.51 19.27l3.188-2.383A16.191 16.191 0 0028.395 13.2v3.839c2.54-.004 5.02.774 7.115 2.23z" fill="url(#paint3_linear_553_4714)"/><path d="M44.8 29.82a16.94 16.94 0 00-.258-2.978l-3.53 2.636v.342a12.891 12.891 0 01-1.084 5.184 12.742 12.742 0 01-3.07 4.289l2.546 2.852a16.572 16.572 0 003.99-5.581 16.765 16.765 0 001.405-6.744z" fill="#21A038"/><path d="M28.4 42.602a12.44 12.44 0 01-5.115-1.1 12.594 12.594 0 01-4.233-3.11l-2.813 2.579a16.365 16.365 0 005.507 4.044A16.17 16.17 0 0028.4 46.44v-3.838z" fill="url(#paint4_linear_553_4714)"/><path d="M19.943 20.347l-2.545-2.852a16.569 16.569 0 00-3.991 5.58A16.764 16.764 0 0012 29.82h3.789a12.887 12.887 0 011.084-5.184 12.742 12.742 0 013.07-4.29z" fill="url(#paint5_linear_553_4714)"/><defs><linearGradient id="paint0_linear_553_4714" x1="17.57" y1="41.091" x2="13.331" y2="29" gradientUnits="userSpaceOnUse"><stop offset=".14" stop-color="#F1E813"/><stop offset=".3" stop-color="#E6E418"/><stop offset=".58" stop-color="#C9DA26"/><stop offset=".89" stop-color="#A2CC39"/></linearGradient><linearGradient id="paint1_linear_553_4714" x1="17.886" y1="18.748" x2="28.583" y2="14.725" gradientUnits="userSpaceOnUse"><stop offset=".06" stop-color="#0FA7DF"/><stop offset=".54" stop-color="#0098F8"/><stop offset=".92" stop-color="#0290EA"/></linearGradient><linearGradient id="paint2_linear_553_4714" x1="27.33" y1="44.123" x2="39.402" y2="41.432" gradientUnits="userSpaceOnUse"><stop offset=".12" stop-color="#A2CC39"/><stop offset=".28" stop-color="#86C239"/><stop offset=".87" stop-color="#219F38"/></linearGradient><linearGradient id="paint3_linear_553_4714" x1="27.607" y1="14.486" x2="37.939" y2="17.632" gradientUnits="userSpaceOnUse"><stop offset=".06" stop-color="#0290EA"/><stop offset=".79" stop-color="#0C89CA"/></linearGradient><linearGradient id="paint4_linear_553_4714" x1="17.19" y1="40.503" x2="28.445" y2="44.654" gradientUnits="userSpaceOnUse"><stop offset=".13" stop-color="#F1E813"/><stop offset=".3" stop-color="#EAE616"/><stop offset=".53" stop-color="#D8DF1F"/><stop offset=".8" stop-color="#BAD52D"/><stop offset=".98" stop-color="#A2CC39"/></linearGradient><linearGradient id="paint5_linear_553_4714" x1="13.412" y1="30.284" x2="18.021" y2="18.453" gradientUnits="userSpaceOnUse"><stop offset=".07" stop-color="#A2CC39"/><stop offset=".26" stop-color="#81C45E"/><stop offset=".92" stop-color="#0FA7DF"/></linearGradient></defs></svg>