<svg width="25" height="25" fill="none" xmlns="http://www.w3.org/2000/svg"><g clip-path="url(#clip0_553_4796)"><path d="M9.884.005l.76-.003h3.712l.76.003.953.01.45.008.436.011.42.015.404.016.39.022.375.026.36.032.346.034c1.813.204 3.055.642 3.993 1.58.937.937 1.375 2.178 1.579 3.992l.035.347.03.36.026.375.021.389.026.612.013.427.014.671.009.953.004 1.021-.001 3.451-.003.76-.01.953-.008.45-.011.436-.015.42-.017.404-.021.39-.027.375-.03.359-.035.347c-.204 1.812-.642 3.055-1.58 3.993-.937.937-2.178 1.375-3.992 1.579l-.347.035-.36.03-.375.026-.389.021-.612.026-.427.013-.671.013-.953.01-1.021.004L10.644 25l-.76-.003-.953-.01-.45-.008-.436-.011-.42-.015-.404-.017-.39-.022-.375-.026-.36-.03-.346-.035c-1.813-.204-3.055-.642-3.993-1.58C.82 22.307.382 21.065.178 19.252l-.035-.347-.03-.36-.027-.375-.02-.389-.026-.612-.013-.427-.013-.671-.01-.954L0 14.097l.001-3.451.003-.76.01-.953.008-.45.011-.436.015-.42.017-.404.021-.39.027-.375.03-.36.035-.346c.204-1.813.642-3.055 1.58-3.993C2.694.821 3.935.383 5.75.18l.347-.035.36-.03.375-.027.389-.02.612-.027.427-.012.671-.014.953-.009zm-2.811 7.6H4.219c.135 6.5 3.385 10.406 9.083 10.406h.323v-3.718c2.094.208 3.677 1.74 4.313 3.718h2.958c-.813-2.958-2.948-4.593-4.281-5.218 1.333-.771 3.208-2.646 3.656-5.188h-2.688c-.583 2.063-2.312 3.938-3.958 4.115V7.605h-2.688v7.208c-1.666-.416-3.77-2.437-3.864-7.208z" fill="#fff"/></g><defs><clipPath id="clip0_553_4796"><path fill="#fff" d="M0 0h25v25H0z"/></clipPath></defs></svg>