<svg width="240" height="60" fill="none" xmlns="http://www.w3.org/2000/svg"><path d="M94.8 11.676H66.18L68.256 6H96.84l-2.04 5.676zm-1.02 2.82H65.16l-2.064 5.664H91.68l2.1-5.664zm-3.096 8.46H62.076L60 28.62h28.56l2.124-5.664z" fill="#009FDF"/><path d="M162.876 42.78H168a4.434 4.434 0 003.936-1.536 4.8 4.8 0 00.996-3.24 4.547 4.547 0 00-1.776-3.875 5.147 5.147 0 00-3.24-.816h-5.1v9.455l.06.013zm-6.756 5.7V14.498h22.116l-1.956 5.7h-13.404v7.524h5.46c4.416 0 6.696 1.055 8.28 2.4a10.064 10.064 0 013.36 8.076 9.783 9.783 0 01-3.996 8.4c-2.136 1.475-4.356 1.895-8.88 1.895l-10.98-.011zm-19.596 0V20.197h-9.84v-5.7h27.3l-1.956 5.7h-8.7v28.32h-6.816l.012-.037zm-27.24-20.4h3.876a7.647 7.647 0 002.4-.18 3.745 3.745 0 002.58-3.875 3.433 3.433 0 00-2.58-3.78 9.297 9.297 0 00-2.58-.24h-3.6v8.076h-.096zm0 5.88v8.916H114a5.052 5.052 0 003.6-.995 4.43 4.43 0 001.452-3.48 4.803 4.803 0 00-.9-2.917c-.996-1.296-2.256-1.535-4.356-1.535h-4.5l-.012.012zm10.896-3.6v.12a12 12 0 013.192 1.92 7.993 7.993 0 012.88 6.66c0 4.656-2.46 8.017-6.516 9-1.62.4-3.289.562-4.956.48h-12.24V14.497h10.896a19.94 19.94 0 015.16.48c3.936 1.056 6.516 3.78 6.516 8.076a7.522 7.522 0 01-.512 2.983 7.533 7.533 0 01-1.648 2.537 8.077 8.077 0 01-2.676 1.8h-.096v-.012z" fill="#0A2973"/></svg>