<svg width="322" height="80" fill="none" xmlns="http://www.w3.org/2000/svg"><path d="M93.663 47.114l-3.4-5.317c-.607-.942-1.103-1.565-1.486-1.868-.383-.304-.974-.456-1.772-.456h-1.94v7.641h-1.869v-7.64h-1.94c-.798 0-1.389.151-1.772.455-.367.303-.862.926-1.485 1.868l-3.401 5.317h-2.132l3.856-5.964c.56-.862 1.006-1.477 1.341-1.844.352-.383.743-.647 1.174-.79-.335-.16-.662-.416-.982-.767-.319-.367-.743-.942-1.27-1.725l-3.688-5.676h2.132l3.233 5.03c.623.958 1.118 1.588 1.485 1.892.383.287.975.43 1.773.43h1.676v-7.352h1.869V37.7h1.676c.815 0 1.406-.152 1.773-.455.383-.303.878-.926 1.485-1.868l3.233-5.03h2.132l-3.665 5.676c-.958 1.405-1.708 2.236-2.251 2.491.415.144.79.4 1.126.767.351.367.814.99 1.389 1.868l3.832 5.964h-2.132zm16.992 0l-3.401-5.317c-.623-.942-1.126-1.565-1.509-1.868-.367-.304-.95-.456-1.749-.456h-2.73v7.641h-1.869V30.348h1.869V37.7h2.467c.798 0 1.381-.144 1.748-.431.384-.304.887-.934 1.509-1.892l3.234-5.03h2.132l-3.689 5.676c-.527.783-.95 1.358-1.27 1.725-.319.351-.646.607-.982.766a2.62 2.62 0 011.15.79c.352.368.807.983 1.365 1.845l3.857 5.964h-2.132zm13.334-16.766h6.467c1.15 0 2.124.151 2.922.455.799.287 1.382.678 1.749 1.173.383.495.647.967.79 1.414.144.447.216.918.216 1.413 0 1.788-.735 2.978-2.204 3.569.878.207 1.573.67 2.084 1.389.511.702.767 1.549.767 2.539 0 3.21-2.068 4.814-6.204 4.814h-6.587V30.348zm3.306 3.113v3.593h3.521c.798 0 1.365-.175 1.7-.527.336-.367.503-.79.503-1.27 0-1.197-.735-1.796-2.203-1.796h-3.521zm0 6.444v4.071h3.976c.846 0 1.453-.183 1.82-.55.383-.384.575-.879.575-1.486 0-.574-.2-1.053-.599-1.437-.383-.399-.982-.599-1.796-.599h-3.976zm14.404-7.21c1.661-1.677 3.673-2.515 6.036-2.515 2.363 0 4.375.838 6.036 2.515 1.677 1.66 2.515 3.672 2.515 6.036 0 2.363-.838 4.383-2.515 6.06-1.661 1.66-3.673 2.49-6.036 2.49-2.363 0-4.375-.83-6.036-2.49-1.661-1.677-2.491-3.697-2.491-6.06 0-2.364.83-4.376 2.491-6.036zm9.772 2.131c-1.005-1.022-2.251-1.532-3.736-1.532-1.485 0-2.731.51-3.737 1.532-.99 1.022-1.485 2.324-1.485 3.905 0 1.596.495 2.906 1.485 3.928 1.006 1.006 2.252 1.509 3.737 1.509 1.501 0 2.746-.503 3.736-1.51 1.006-1.021 1.509-2.33 1.509-3.927 0-1.581-.503-2.883-1.509-3.905zm12.075 2.108h2.107c.799 0 1.366-.175 1.701-.527.335-.367.503-.79.503-1.27 0-1.229-.782-1.843-2.347-1.843h-.12c-.671 0-1.429.151-2.276.455-.83.303-1.548.702-2.155 1.197l-2.156-1.988a10.5 10.5 0 013.042-2.012c1.134-.51 2.275-.766 3.425-.766h.168c.862.016 1.629.127 2.299.335.687.208 1.222.471 1.605.79.399.304.727.663.982 1.078.255.415.423.807.503 1.174.096.367.144.742.144 1.126 0 .91-.208 1.708-.623 2.395-.415.686-.966 1.165-1.653 1.437.863.208 1.541.663 2.036 1.365.511.703.767 1.55.767 2.54 0 1.452-.503 2.626-1.509 3.52-.99.878-2.555 1.326-4.695 1.342h-.168a8.32 8.32 0 01-3.64-.839 9.751 9.751 0 01-3.018-2.227l2.155-1.988c.591.574 1.31 1.045 2.156 1.413.862.351 1.685.527 2.467.527h.12c1.996-.032 2.994-.735 2.994-2.108 0-.575-.2-1.054-.599-1.437-.383-.4-.982-.599-1.796-.599h-2.419v-3.09zm11.465-6.586h5.509c2.299 0 4.119.607 5.461 1.82 1.341 1.198 2.012 2.739 2.012 4.623 0 1.9-.671 3.457-2.012 4.67-1.342 1.198-3.162 1.797-5.461 1.797h-2.204v3.856h-3.305V30.348zm3.305 9.796h2.467c1.166 0 2.132-.28 2.898-.838.783-.56 1.174-1.398 1.174-2.515 0-1.07-.391-1.892-1.174-2.467-.782-.575-1.748-.863-2.898-.863h-2.467v6.683zm14.708-7.449c1.661-1.677 3.673-2.515 6.036-2.515 2.363 0 4.375.838 6.036 2.515 1.677 1.66 2.515 3.672 2.515 6.036 0 2.363-.838 4.383-2.515 6.06-1.661 1.66-3.673 2.49-6.036 2.49-2.363 0-4.375-.83-6.036-2.49-1.661-1.677-2.491-3.697-2.491-6.06 0-2.364.83-4.376 2.491-6.036zm9.773 2.131c-1.006-1.022-2.252-1.532-3.737-1.532-1.485 0-2.73.51-3.736 1.532-.991 1.022-1.485 2.324-1.485 3.905 0 1.596.494 2.906 1.485 3.928 1.006 1.006 2.251 1.509 3.736 1.509 1.501 0 2.746-.503 3.737-1.51 1.006-1.021 1.509-2.33 1.509-3.927 0-1.581-.503-2.883-1.509-3.905zm26.395 12.288l-3.449-5.39c-.399-.59-.742-.99-1.03-1.197-.287-.207-.702-.311-1.245-.311h-.91v6.898h-3.306v-6.898h-.91c-.559 0-.982.104-1.27.311-.287.208-.622.607-1.006 1.198l-3.449 5.39h-3.736l4.096-6.396c.766-1.182 1.445-1.908 2.036-2.18-.511-.271-1.158-.942-1.941-2.012l-3.928-6.18h3.737l3.281 5.174c.4.591.743.99 1.03 1.198.288.207.703.311 1.246.311h.814v-6.682h3.306v6.682h.79c.543 0 .958-.104 1.245-.311.304-.208.647-.607 1.03-1.198l3.306-5.173h3.736l-3.952 6.18c-.734 1.037-1.373 1.708-1.916 2.011.591.288 1.27 1.014 2.036 2.18l4.096 6.395h-3.737zm22.92 3.09h-3.305v-3.09h-10.923v3.09h-3.305V44h2.228l5.604-13.652h1.965L249.908 44h2.204v6.204zm-8.766-13.797L240.352 44h6.012l-3.018-7.593zm15.248.719h7.258v3.114h-7.258V44h7.857v3.114h-11.162V30.348h11.162v3.113h-7.857v3.665zm24.521 9.988h-3.305V40.24h-6.491v6.874h-3.305V30.348h3.305v6.778h6.491v-6.778h3.305v16.766zm17.54 0h-3.306V36.551l-7.952 10.563h-1.94V30.348h3.305V40.91l7.929-10.563h1.964v16.766zm7.861-9.988h7.258v3.114h-7.258V44h7.857v3.114h-11.162V30.348h11.162v3.113h-7.857v3.665zM33.52 42.566V13.413l-5.75-4.311-9.58 7.185v30.968c3.666-1.347 7.787-2.525 11.87-3.694 1.16-.331 2.316-.662 3.459-.995z" fill="#fff"/><path d="M33.041 42.705V13.054l-.958-.719v30.647l.958-.277zm-1.437.415V11.976l-.959-.718v32.137l.959-.275zm-1.437.412V10.898l-.958-.718v33.626l.853-.244.105-.03zm-1.437.411V9.82l-.959-.718v35.117l.959-.276z" fill="#002040"/><path d="M42.143 39.77v-8.633l-4.311-2.395-7.665 3.354V43.53c4.215-1.205 8.386-2.4 11.976-3.761z" fill="#fff"/><path d="M41.664 39.95v-9.08l-.958-.532v9.956c.323-.114.643-.23.958-.346zm-1.437.514v-10.39l-.958-.533v11.248c.322-.107.642-.216.958-.325zm-1.437.484V29.274l-.959-.532v12.516c.322-.103.641-.206.958-.31z" fill="#002040"/><path d="M24.418 45.205V28.263L18.67 24.91l-9.581 5.27v21.743c3.492-2.813 9.187-4.863 15.33-6.718z" fill="#fff"/><path d="M23.94 45.35V27.984l-.959-.56v18.222c.318-.1.638-.198.958-.296zm-4.312 1.393a82.61 82.61 0 00-.958.338v-22.17l.958.558v21.274zm1.438-.485c-.322.106-.642.213-.959.32v-20.83l.959.559v19.951zm1.436-.462l-.958.306V26.587l.958.559v18.65z" fill="#002040"/><path d="M23.912 53.357l.028-.01v.026l-.028-.016z" fill="#fff"/><path d="M59.148 33.772C57.915 51.497 6.214 50.06 9.088 66.347c-18.442-23.234 41.107-20.36 43.593-34.97C54.597 20.119 27.531 4.79 27.531 4.79s32.634 14.371 31.617 28.982z" fill="#fff"/><path d="M64.179 37.845C62.313 57.433 8.849 58.204 17.712 75.21c-22.994-21.317 40.09-20.36 43.592-39.042 1.617-8.623-6.227-15.09-6.227-15.09s10.06 6.707 9.102 16.767z" fill="#fff"/></svg>