<svg width="60" height="72" fill="none" xmlns="http://www.w3.org/2000/svg"><path d="M28.52 38.566V9.413l-5.75-4.311-9.58 7.185v30.968c3.666-1.347 7.786-2.525 11.87-3.694 1.16-.331 2.316-.662 3.459-.995z" fill="#fff"/><path d="M28.041 38.705V9.054l-.958-.719v30.647c.32-.092.64-.184.958-.277zm-1.437.415V7.976l-.959-.719v32.138l.959-.275zm-1.437.412V6.898l-.958-.718v33.626l.853-.244.105-.03zm-1.437.411V5.82l-.959-.718v35.117l.959-.276z" fill="#002040"/><path d="M37.143 35.77v-8.632l-4.311-2.395-7.665 3.353v11.436c4.215-1.206 8.386-2.401 11.976-3.762z" fill="#fff"/><path d="M36.664 35.95v-9.078l-.958-.533v9.957c.323-.114.643-.23.958-.346zm-1.437.514v-10.39l-.958-.533v11.248c.322-.107.642-.216.958-.325zm-1.437.484V25.275l-.959-.532v12.515c.322-.102.641-.206.958-.31z" fill="#002040"/><path d="M19.418 41.205V24.263L13.67 20.91l-9.581 5.27v21.743c3.492-2.813 9.188-4.863 15.33-6.718z" fill="#fff"/><path d="M18.94 41.35V23.985l-.959-.559v18.221c.318-.099.638-.197.958-.295zm-4.312 1.393a82.61 82.61 0 00-.958.338v-22.17l.958.558v21.274zm1.438-.484c-.322.106-.642.212-.959.32V21.75l.959.558V42.26zm1.436-.463l-.958.306V22.587l.958.559v18.65z" fill="#002040"/><path d="M18.912 49.357l.028-.01v.026l-.028-.016z" fill="#fff"/><path d="M54.148 29.773C52.915 47.497 1.214 46.06 4.088 62.347c-18.443-23.233 41.107-20.359 43.593-34.97C49.597 16.12 22.531.791 22.531.791s32.634 14.37 31.617 28.982z" fill="#fff"/><path d="M59.179 33.844c-1.866 19.589-55.33 20.36-46.467 37.365-22.994-21.317 40.09-20.359 43.592-39.042 1.617-8.622-6.227-15.09-6.227-15.09s10.06 6.707 9.102 16.767z" fill="#fff"/></svg>