<svg width="281" height="70" fill="none" xmlns="http://www.w3.org/2000/svg"><path d="M81.29 41.225l-2.976-4.653c-.53-.825-.964-1.37-1.3-1.635-.335-.265-.852-.398-1.55-.398h-1.698v6.686h-1.635v-6.686h-1.697c-.698 0-1.216.133-1.551.398-.321.266-.755.81-1.3 1.635l-2.975 4.653h-1.866l3.374-5.219c.49-.755.88-1.292 1.174-1.614a2.44 2.44 0 011.027-.691c-.293-.14-.58-.364-.86-.671-.278-.321-.649-.824-1.11-1.509l-3.228-4.967h1.866l2.829 4.401c.545.838.978 1.39 1.3 1.656.335.251.852.377 1.55.377h1.467v-6.434h1.635v6.434h1.467c.713 0 1.23-.133 1.551-.398.335-.266.769-.81 1.3-1.635l2.829-4.401h1.865l-3.207 4.967c-.838 1.23-1.494 1.956-1.97 2.18.364.125.692.349.986.67.307.322.712.866 1.215 1.635l3.353 5.219H81.29zm14.867 0l-2.976-4.653c-.544-.825-.985-1.37-1.32-1.635-.321-.265-.831-.398-1.53-.398h-2.39v6.686h-1.634V26.554h1.635v6.434H90.1c.698 0 1.208-.126 1.53-.377.335-.266.775-.818 1.32-1.656l2.83-4.401h1.864l-3.227 4.967c-.461.685-.831 1.188-1.11 1.509-.28.307-.567.53-.86.67.377.126.712.357 1.006.692.308.322.706.86 1.195 1.614l3.374 5.219h-1.866zm11.668-14.671h5.658c1.006 0 1.859.133 2.557.398.699.252 1.209.594 1.53 1.027.336.433.566.845.692 1.237a4 4 0 01.188 1.236c0 1.565-.643 2.606-1.928 3.123a3.014 3.014 0 011.824 1.215c.446.615.67 1.356.67 2.222 0 2.808-1.809 4.213-5.428 4.213h-5.763V26.554zm2.892 2.724v3.144h3.081c.698 0 1.194-.153 1.488-.46a1.6 1.6 0 00.44-1.112c0-1.048-.643-1.572-1.928-1.572h-3.081zm0 5.638v3.563h3.479c.74 0 1.271-.16 1.593-.482.335-.335.503-.768.503-1.3 0-.502-.175-.922-.524-1.257-.336-.35-.859-.524-1.572-.524h-3.479zm12.604-6.308c1.453-1.467 3.213-2.2 5.281-2.2 2.068 0 3.828.733 5.282 2.2 1.467 1.453 2.2 3.213 2.2 5.281 0 2.068-.733 3.835-2.2 5.303-1.454 1.453-3.214 2.18-5.282 2.18s-3.828-.727-5.281-2.18c-1.453-1.468-2.18-3.235-2.18-5.303s.727-3.828 2.18-5.281zm8.551 1.865c-.881-.894-1.97-1.341-3.27-1.341-1.299 0-2.389.447-3.269 1.341-.867.894-1.3 2.033-1.3 3.416 0 1.397.433 2.543 1.3 3.437.88.88 1.97 1.32 3.269 1.32 1.313 0 2.403-.44 3.27-1.32.88-.894 1.32-2.04 1.32-3.437 0-1.383-.44-2.522-1.32-3.416zm10.565 1.844h1.844c.699 0 1.195-.153 1.488-.46.294-.322.44-.692.44-1.111 0-1.076-.684-1.614-2.054-1.614h-.104c-.587 0-1.251.133-1.991.398a6.465 6.465 0 00-1.887 1.048l-1.886-1.74a9.206 9.206 0 012.662-1.76c.992-.447 1.991-.67 2.997-.67h.146c.755.013 1.426.111 2.012.293.601.181 1.069.412 1.405.691.349.266.635.58.859.943.223.364.37.706.44 1.027.084.322.126.65.126.985 0 .797-.182 1.495-.545 2.096-.364.6-.846 1.02-1.446 1.258.754.181 1.348.58 1.781 1.194.447.615.671 1.355.671 2.222 0 1.271-.44 2.298-1.321 3.08-.866.77-2.235 1.16-4.107 1.174h-.147a7.284 7.284 0 01-3.186-.733 8.54 8.54 0 01-2.64-1.95l1.886-1.739a6.216 6.216 0 001.886 1.237c.755.307 1.474.46 2.159.46h.105c1.746-.027 2.619-.642 2.619-1.844 0-.503-.174-.922-.524-1.257-.335-.35-.859-.524-1.571-.524h-2.117v-2.704zm10.032-5.763h4.82c2.012 0 3.605.53 4.779 1.593 1.173 1.048 1.76 2.396 1.76 4.045 0 1.662-.587 3.025-1.76 4.086-1.174 1.048-2.767 1.572-4.779 1.572h-1.928v3.375h-2.892V26.554zm2.892 8.572h2.159c1.019 0 1.865-.245 2.536-.734.684-.489 1.026-1.222 1.026-2.2 0-.936-.342-1.656-1.026-2.16-.685-.502-1.53-.754-2.536-.754h-2.159v5.848zm12.87-6.518c1.453-1.467 3.213-2.2 5.281-2.2 2.068 0 3.829.733 5.282 2.2 1.467 1.453 2.2 3.213 2.2 5.281 0 2.068-.733 3.835-2.2 5.303-1.453 1.453-3.214 2.18-5.282 2.18s-3.828-.727-5.281-2.18c-1.453-1.468-2.18-3.235-2.18-5.303s.727-3.828 2.18-5.281zm8.551 1.865c-.88-.894-1.97-1.341-3.27-1.341-1.299 0-2.389.447-3.269 1.341-.867.894-1.3 2.033-1.3 3.416 0 1.397.433 2.543 1.3 3.437.88.88 1.97 1.32 3.269 1.32 1.314 0 2.403-.44 3.27-1.32.88-.894 1.32-2.04 1.32-3.437 0-1.383-.44-2.522-1.32-3.416zm23.095 10.752l-3.018-4.716c-.349-.517-.649-.866-.901-1.048-.251-.181-.614-.272-1.09-.272h-.796v6.036h-2.892v-6.036h-.797c-.488 0-.859.09-1.11.272-.252.182-.545.531-.881 1.048l-3.018 4.716h-3.269l3.584-5.596c.67-1.034 1.264-1.67 1.781-1.907-.447-.238-1.012-.825-1.697-1.76l-3.437-5.408h3.269l2.871 4.527c.35.517.65.866.901 1.048.252.181.615.272 1.09.272h.713v-5.847h2.892V32.4h.692c.475 0 .838-.09 1.09-.272.265-.182.565-.531.901-1.048l2.892-4.527h3.269l-3.458 5.407c-.642.908-1.201 1.495-1.676 1.76.517.252 1.11.888 1.781 1.908l3.584 5.596h-3.27zm20.055 2.703h-2.892v-2.703h-9.557v2.703h-2.892V38.5h1.949l4.904-11.946h1.719l4.841 11.946h1.928v5.428zm-7.671-12.072l-2.619 6.644h5.26l-2.641-6.644zm13.343.629h6.35v2.725h-6.35v3.29h6.874v2.725h-9.766V26.554h9.766v2.724h-6.874v3.207zm21.456 8.74h-2.892V35.21h-5.68v6.015h-2.892V26.554h2.892v5.931h5.68v-5.931h2.892v14.67zm15.347 0h-2.892v-9.243l-6.958 9.243h-1.698V26.554h2.893v9.242l6.937-9.242h1.718v14.67zm6.879-8.74h6.351v2.725h-6.351v3.29h6.875v2.725h-9.767V26.554h9.767v2.724h-6.875v3.207zm-240.621 4.76V11.737l-5.03-3.773-8.384 6.287V41.35c3.209-1.18 6.814-2.21 10.388-3.232 1.014-.29 2.026-.58 3.026-.872z" fill="#002040"/><path d="M28.245 37.367V11.422l-.838-.629V37.61c.28-.08.56-.16.838-.242zm-1.257.363V10.48l-.839-.629v28.12l.839-.24zm-1.258.36V9.536l-.838-.629V38.33l.747-.213c.03-.01.06-.018.091-.027zm-1.257.36V8.593l-.838-.629v30.727l.838-.24z" fill="#fff"/><path d="M36.21 34.799v-7.553l-3.773-2.096-6.706 2.934V38.09c3.687-1.055 7.337-2.1 10.478-3.291z" fill="#002040"/><path d="M35.79 34.956v-7.943l-.838-.466v8.712c.283-.1.563-.201.839-.303zm-1.257.45v-9.092l-.839-.466v9.843c.283-.095.562-.19.839-.285zm-1.258.424V25.615l-.838-.465V36.1c.282-.089.561-.18.838-.27z" fill="#fff"/><path d="M20.7 39.555V24.73l-5.03-2.934-8.383 4.611v19.025c3.056-2.46 8.04-4.255 13.413-5.877z" fill="#002040"/><path d="M20.281 39.682V24.486l-.838-.489V39.94l.838-.258zM16.509 40.9a72.18 72.18 0 00-.839.296v-19.4l.839.49V40.9zm1.257-.423c-.281.092-.561.186-.838.28V22.53l.838.489v17.458zm1.258-.405c-.281.088-.56.178-.838.268V23.263l.838.49v16.319zm1.233 6.616l.024-.009v.023l-.024-.014z" fill="#fff"/><path d="M51.09 29.55C50.01 45.06 4.771 43.803 7.286 58.055-8.852 37.725 43.254 40.24 45.43 27.456c1.676-9.85-22.006-23.263-22.006-23.263S51.979 16.767 51.089 29.55z" fill="url(#paint0_linear_538_4286)"/><path d="M55.49 33.114c-1.63 17.14-48.411 17.814-40.657 32.694-20.12-18.652 35.079-17.814 38.144-34.161 1.415-7.545-5.45-13.204-5.45-13.204s8.803 5.868 7.965 14.67z" fill="url(#paint1_linear_538_4286)"/><defs><linearGradient id="paint0_linear_538_4286" x1="27.651" y1="4.192" x2="27.651" y2="58.054" gradientUnits="userSpaceOnUse"><stop stop-color="#409FFF"/><stop offset="1" stop-color="#007FFF"/></linearGradient><linearGradient id="paint1_linear_538_4286" x1="32.989" y1="18.443" x2="32.989" y2="65.808" gradientUnits="userSpaceOnUse"><stop stop-color="#409FFF"/><stop offset="1" stop-color="#007FFF"/></linearGradient></defs></svg>