<svg width="52" height="62" fill="none" xmlns="http://www.w3.org/2000/svg"><path d="M24.665 33.245V7.737l-5.03-3.773-8.384 6.288v27.096c3.209-1.178 6.814-2.21 10.388-3.231 1.014-.29 2.026-.58 3.026-.872z" fill="#002040"/><path d="M24.245 33.367V7.422l-.838-.629V33.61c.28-.08.56-.16.838-.242zm-1.257.363V6.48l-.839-.63v28.12l.839-.24zm-1.258.36V5.536l-.838-.629V34.33l.747-.213c.03-.01.06-.018.091-.027zm-1.257.36V4.593l-.838-.629v30.727l.838-.24z" fill="#fff"/><path d="M32.21 30.799v-7.553l-3.773-2.096-6.707 2.934V34.09c3.688-1.055 7.338-2.1 10.48-3.291z" fill="#002040"/><path d="M31.79 30.956v-7.943l-.838-.466v8.712c.283-.1.563-.201.838-.303zm-1.257.45v-9.092l-.839-.466v9.843c.283-.095.562-.19.839-.285zm-1.258.424V21.615l-.838-.465V32.1c.282-.089.561-.18.838-.27z" fill="#fff"/><path d="M16.7 35.555V20.73l-5.03-2.934-8.383 4.611v19.025c3.056-2.46 8.04-4.255 13.413-5.877z" fill="#002040"/><path d="M16.281 35.682V20.486l-.838-.489V35.94l.838-.258zM12.509 36.9a72.18 72.18 0 00-.839.296v-19.4l.839.49V36.9zm1.257-.423c-.281.092-.561.186-.838.28V18.53l.838.489v17.458zm1.258-.405c-.281.088-.56.178-.838.268V19.263l.838.49v16.319zm1.233 6.616l.024-.009v.023l-.024-.014z" fill="#fff"/><path d="M47.09 25.55C46.01 41.06.771 39.803 3.286 54.055-12.852 33.725 39.254 36.24 41.43 23.456 43.107 13.605 19.425.192 19.425.192S47.979 12.767 47.089 25.55z" fill="url(#paint0_linear_0_1)"/><path d="M51.49 29.114c-1.63 17.14-48.411 17.814-40.657 32.694-20.12-18.652 35.079-17.814 38.144-34.161 1.415-7.545-5.45-13.204-5.45-13.204s8.803 5.868 7.965 14.67z" fill="url(#paint1_linear_0_1)"/><defs><linearGradient id="paint0_linear_0_1" x1="23.651" y1=".192" x2="23.651" y2="54.054" gradientUnits="userSpaceOnUse"><stop stop-color="#409FFF"/><stop offset="1" stop-color="#007FFF"/></linearGradient><linearGradient id="paint1_linear_0_1" x1="28.989" y1="14.443" x2="28.989" y2="61.808" gradientUnits="userSpaceOnUse"><stop stop-color="#409FFF"/><stop offset="1" stop-color="#007FFF"/></linearGradient></defs></svg>